<svg version="1.1" xmlns="http://www.w3.org/2000/svg" xmlns:xlink="http://www.w3.org/1999/xlink"
    preserveAspectRatio="xMidYMid meet" viewBox="524 163 410 355">
    <g data-item-type="text" data-item="Business" id="logo__item--business" class="logo__item">
        <g class="logo__item__inner"
            transform="translate(642.4437484741211 406.70542296929875) scale(3.524537468099011 3.524537468099011) rotate(0 0 0)">
            <text data-part-id="logo__item--business" dy="0" dominant-baseline="auto" alignment-baseline="auto"
                font-family="Chewy" font-size="32px" fill="#fff" letter-spacing="0" font-weight="normal"
                font-style="normal" data-font-family="Chewy" data-font-weight="normal" data-font-style="normal"
                data-ttf-url="/builder_assets/fontsttf/font-montserrat-bold-normal.ttf"
                data-font-filename="chewy-normal-normal">pi-o</text>
        </g>
    </g>
    <g data-item-type="image" data-item="Image" data-logo-item="" id="logo__item--logo_0" class="logo__item">
        <g class="logo__item__inner"
            transform="translate(695.6385515749264 265) scale(0.7947137866365841 0.7947137866365841) rotate(0 0 0)">

            <g>
                <path fill="#73AD43"
                    d="M94.831,40.053c0.3-0.027,0.596-0.027,0.887-0.01C95.427,40.026,95.131,40.028,94.831,40.053z"
                    data-part-id="logo__item--logo_0__0"></path>
                <path fill="#73AD43"
                    d="M92.451,40.619c0.473-0.189,0.926-0.291,1.379-0.399C93.377,40.319,92.922,40.442,92.451,40.619z"
                    data-part-id="logo__item--logo_0__1"></path>
                <path fill="#f6c101"
                    d="M80.857,67.594c2,1.273,3.889,2.197,5.547,2.926c4.207-6.192,4.689-16.583,1.811-22.558   c-0.662-1.407-1.429-2.402-2.281-3.062c2.239-1.899,4.419-3.419,6.437-4.247c-2.919,1.124-6.158,3.594-9.435,6.577   c-4.631,4.128-9.555,7.228-14.656,9.333C71.938,61.066,76.115,64.82,80.857,67.594z"
                    data-part-id="logo__item--logo_0__2"></path>
                <path fill="#73AD43"
                    d="M96.844,40.26c0.266,0.081,0.534,0.158,0.787,0.288C97.378,40.42,97.109,40.341,96.844,40.26z"
                    data-part-id="logo__item--logo_0__3"></path>
                <path fill="#73AD43"
                    d="M102.135,57.993c0.971-4.979,0.457-10.407-1.417-14.09c-0.369-0.741-0.793-1.283-1.224-1.803   c0.431,0.542,0.837,1.173,1.204,1.954C102.455,47.699,102.942,53.002,102.135,57.993z"
                    data-part-id="logo__item--logo_0__4"></path>
                <path fill="#73AD43"
                    d="M98.459,41.129c0.315,0.251,0.639,0.468,0.929,0.815C99.095,41.609,98.777,41.373,98.459,41.129z"
                    data-part-id="logo__item--logo_0__5"></path>
                <path fill="#97C757"
                    d="M101.104,62.239c-0.118,0.295-0.241,0.586-0.366,0.877C100.855,62.818,100.998,62.547,101.104,62.239z"
                    data-part-id="logo__item--logo_0__6"></path>
                <path fill="#97C757"
                    d="M99.698,65.375c-0.146,0.276-0.325,0.529-0.478,0.8C99.385,65.912,99.545,65.651,99.698,65.375z"
                    data-part-id="logo__item--logo_0__7"></path>
                <path fill="#fae96f"
                    d="M88.215,47.962c2.879,5.976,2.396,16.366-1.811,22.558c1.404,0.616,2.641,1.094,3.586,1.483   c4.648-2.655,8.562-6.399,11.415-10.89c0.296-1.02,0.557-2.049,0.729-3.121c0.808-4.991,0.32-10.294-1.437-13.939   c-0.367-0.781-0.773-1.412-1.204-1.954c-0.037-0.047-0.069-0.111-0.106-0.155c-0.29-0.347-0.613-0.564-0.929-0.815   c-0.269-0.214-0.539-0.434-0.828-0.582c-0.253-0.13-0.521-0.207-0.787-0.288c-0.367-0.111-0.739-0.192-1.126-0.217   c-0.291-0.017-0.587-0.017-0.887,0.01c-0.327,0.03-0.66,0.086-1.001,0.167c-0.453,0.108-0.906,0.209-1.379,0.399   c-0.027,0.01-0.055,0.025-0.081,0.035c-2.018,0.828-4.197,2.348-6.437,4.247C86.786,45.561,87.553,46.556,88.215,47.962z"
                    data-part-id="logo__item--logo_0__8"></path>
                <path fill="#fae96f"
                    d="M47.958,65.853c4.971,6.185,12.521,10.198,21.068,10.198c0.188,0,0.37-0.03,0.557-0.035   c1.941,0.252,3.919,0.365,5.936,0.262c5.279-0.267,10.176-1.818,14.471-4.274c-0.945-0.389-2.182-0.867-3.586-1.483   c-1.658-0.729-3.547-1.653-5.547-2.926c-4.742-2.774-8.92-6.528-12.578-11.03c-2.954-3.636-5.586-7.727-7.742-12.412   c-0.608-1.36-1.234-2.666-1.877-3.904c-1.123,0.258-2.295,0.87-3.535,1.904C49.384,46.881,45.345,58.086,47.958,65.853z"
                    data-part-id="logo__item--logo_0__9"></path>
                <path fill="#59B4E5"
                    d="M46.66,31.683c0.608-0.278,1.199-0.448,1.776-0.524C47.859,31.234,47.269,31.404,46.66,31.683z"
                    data-part-id="logo__item--logo_0__10"></path>
                <path fill="#59B4E5"
                    d="M54.146,33.587c0.482,0.488,0.958,1.032,1.418,1.636C55.104,34.619,54.628,34.075,54.146,33.587z"
                    data-part-id="logo__item--logo_0__11"></path>
                <path fill="#59B4E5"
                    d="M48.747,31.128c0.581-0.044,1.15-0.012,1.702,0.126C49.896,31.116,49.328,31.084,48.747,31.128z"
                    data-part-id="logo__item--logo_0__12"></path>
                <path fill="#59B4E5"
                    d="M55.801,35.545c0.463,0.631,0.918,1.298,1.364,2.025C56.72,36.843,56.264,36.176,55.801,35.545z"
                    data-part-id="logo__item--logo_0__13"></path>
                <path fill="#59B4E5"
                    d="M52.353,32.099c0.522,0.333,1.03,0.754,1.527,1.229C53.382,32.853,52.875,32.432,52.353,32.099z"
                    data-part-id="logo__item--logo_0__14"></path>
                <path fill="#59B4E5"
                    d="M50.611,31.311c0.54,0.152,1.069,0.389,1.584,0.702C51.68,31.7,51.153,31.463,50.611,31.311z"
                    data-part-id="logo__item--logo_0__15"></path>
                <path fill="#59B4E5"
                    d="M36.635,54.576c-0.049-0.33-0.094-0.658-0.13-0.988C36.539,53.923,36.581,54.249,36.635,54.576z"
                    data-part-id="logo__item--logo_0__16"></path>
                <path fill="#59B4E5"
                    d="M42.182,35.542c0.67-0.914,1.404-1.736,2.219-2.409c0.675-0.567,1.328-0.976,1.965-1.301   c-0.64,0.328-1.293,0.731-1.968,1.301c-0.761,0.628-1.483,1.406-2.178,2.241l-0.022,0.079   C42.192,35.483,42.189,35.513,42.182,35.542z"
                    data-part-id="logo__item--logo_0__17"></path>
                <path fill="#59B4E5"
                    d="M57.217,37.654c0.438,0.724,0.865,1.5,1.289,2.298C58.082,39.154,57.656,38.378,57.217,37.654z"
                    data-part-id="logo__item--logo_0__18"></path>
                <path fill="#f6c101"
                    d="M42.182,35.542c-0.631,2.488-0.951,5.072-0.976,7.745l-0.071,0.515l0.066-0.005   c-0.022,0.005-0.022,0.988,0.005,1.463c0.091,1.825,0.367,3.591,0.746,5.315c0.36,5.786,2.591,11.028,6.005,15.277   c-2.613-7.767,1.426-18.972,7.168-23.701c1.239-1.034,2.412-1.646,3.535-1.904c0.002,0,0.005-0.002,0.008-0.002   c-0.054-0.104-0.111-0.19-0.163-0.293c-0.424-0.798-0.85-1.574-1.289-2.298c-0.017-0.027-0.034-0.054-0.052-0.084   c-0.446-0.727-0.901-1.394-1.364-2.025c-0.079-0.108-0.158-0.219-0.237-0.322c-0.46-0.604-0.936-1.148-1.418-1.636   c-0.086-0.091-0.178-0.175-0.266-0.259c-0.498-0.475-1.005-0.896-1.527-1.229c-0.052-0.035-0.104-0.057-0.158-0.086   c-0.515-0.312-1.044-0.549-1.584-0.702c-0.057-0.018-0.108-0.042-0.163-0.057c-0.552-0.138-1.121-0.17-1.702-0.126   c-0.104,0.007-0.205,0.015-0.311,0.03c-0.577,0.076-1.167,0.246-1.776,0.524c-0.096,0.042-0.195,0.101-0.293,0.15   c-0.638,0.325-1.291,0.734-1.965,1.301C43.586,33.806,42.852,34.629,42.182,35.542z"
                    data-part-id="logo__item--logo_0__19"></path>
                <path fill="#fff"
                    d="M99.221,66.175c0.152-0.271,0.332-0.524,0.478-0.8c0.387-0.732,0.707-1.498,1.04-2.259   c0.125-0.291,0.248-0.582,0.366-0.877c0.239-0.591,0.532-1.155,0.739-1.764c-0.133,0.222-0.301,0.421-0.438,0.638   c-2.853,4.491-6.767,8.235-11.415,10.89c-4.295,2.456-9.192,4.007-14.471,4.274c-2.017,0.104-3.995-0.01-5.936-0.262   c-0.188,0.005-0.37,0.035-0.557,0.035c-8.547,0-16.097-4.013-21.068-10.198c-3.414-4.249-5.646-9.491-6.005-15.277   c-0.379-1.724-0.655-3.49-0.746-5.315c-0.027-0.476-0.027-1.458-0.005-1.463l-0.066,0.005l0.071-0.515   c0.024-2.673,0.345-5.257,0.976-7.745c0.007-0.029,0.01-0.059,0.017-0.088l0.022-0.079l9.003-31.266L50.426,4.1l-12.53,35.182   c-0.833,2.547-1.325,5.217-1.522,7.996l-0.106,0.525h0.069c-0.024,0-0.083,1.015-0.091,1.507c-0.015,1.451,0.094,2.872,0.259,4.279   c0.037,0.33,0.081,0.658,0.13,0.988c2.205,15.065,14.348,26.967,29.632,28.627l1.939,56.078   c-15.065-0.039-26.879,0.932-26.894,2.276c-0.015,1.419,13.22,2.704,29.566,2.877c16.346,0.172,29.608-0.843,29.623-2.267   c0.015-1.403-13.136-2.694-29.406-2.872l3.113-56.181C84.971,81.745,94.102,75.252,99.221,66.175z"
                    data-part-id="logo__item--logo_0__20"></path>
            </g>

        </g>
    </g>
    <g data-item-type="shape" data-item="Shape" data-logo-item="" id="logo__item--shape_1" class="logo__item">
        <g class="logo__item__inner"
            transform="translate(511.29999923706055 124.5999984741211) scale(4.329764399562984 4.329764399562984) rotate(0 0 0)">

            <g>
                <g>
                    <path fill="#e00"
                        d="M28,48l-11.3-0.1l34.4-30.3l32.8,30.8L76,48v32.7c1,0.4,3,0.9,5,1.5V54h16L51.1,9.6L3.6,52H22v30    c2-0.5,4-0.9,6-1.3V48z"
                        data-part-id="logo__item--shape_1__0"></path>
                </g>
                <path fill="#fff" d="M7.5,90.4c0,0,43.4-18.9,85.8,0C93.2,90.4,59,80,7.5,90.4z"
                    data-part-id="logo__item--shape_1__1"></path>
            </g>

        </g>
    </g>
    <defs>
        <style type="text/css">
            @import url(https://fonts.googleapis.com/css?family=Chewy);
        </style>
    </defs>
</svg>